<svg width="115" height="57" viewBox="0 0 115 57" fill="none" xmlns="http://www.w3.org/2000/svg">
<path d="M6.67812 0V45.7732H0V0H6.67812Z" fill="white"/>
<path d="M29.8613 13.732C32.2012 13.732 34.3134 14.1134 36.1977 14.8763C38.1028 15.6392 39.718 16.7216 41.0432 18.1237C42.3892 19.5258 43.4246 21.2268 44.1493 23.2268C44.8741 25.2268 45.2365 27.4742 45.2365 29.9691C45.2365 32.4639 44.8741 34.7113 44.1493 36.7113C43.4246 38.7113 42.3892 40.4227 41.0432 41.8454C39.718 43.2474 38.1028 44.3299 36.1977 45.0928C34.3134 45.8557 32.2012 46.2371 29.8613 46.2371C27.5006 46.2371 25.3678 45.8557 23.4627 45.0928C21.5783 44.3299 19.9632 43.2474 18.6172 41.8454C17.2712 40.4227 16.2359 38.7113 15.5111 36.7113C14.7863 34.7113 14.424 32.4639 14.424 29.9691C14.424 27.4742 14.7863 25.2268 15.5111 23.2268C16.2359 21.2268 17.2712 19.5258 18.6172 18.1237C19.9632 16.7216 21.5783 15.6392 23.4627 14.8763C25.3678 14.1134 27.5006 13.732 29.8613 13.732ZM29.8613 41.0412C32.7189 41.0412 34.8414 40.0928 36.2288 38.1959C37.6369 36.2783 38.3409 33.5464 38.3409 30C38.3409 26.4536 37.6369 23.7216 36.2288 21.8041C34.8414 19.866 32.7189 18.8969 29.8613 18.8969C26.9623 18.8969 24.8087 19.866 23.4006 21.8041C21.9925 23.7216 21.2884 26.4536 21.2884 30C21.2884 33.5464 21.9925 36.2783 23.4006 38.1959C24.8087 40.0928 26.9623 41.0412 29.8613 41.0412Z" fill="white"/>
<path d="M63.959 29.7216C66.0297 29.7216 67.5828 29.1959 68.6181 28.1443C69.6535 27.0928 70.1712 25.7216 70.1712 24.0309C70.1712 22.299 69.6535 20.9278 68.6181 19.9175C67.5828 18.9072 66.0297 18.4021 63.959 18.4021C61.909 18.4021 60.3559 18.9072 59.2998 19.9175C58.2645 20.9278 57.7468 22.299 57.7468 24.0309C57.7468 24.8557 57.8814 25.6186 58.1506 26.3196C58.4198 27.0206 58.8132 27.6289 59.3309 28.1443C59.8486 28.6392 60.4905 29.0309 61.2567 29.3196C62.0436 29.5876 62.9443 29.7216 63.959 29.7216ZM73.2462 47.3196C73.2462 46.6186 73.0392 46.0618 72.625 45.6495C72.2316 45.2165 71.6932 44.8866 71.0098 44.6598C70.3265 44.4124 69.5293 44.2371 68.6181 44.134C67.707 44.0103 66.7338 43.9278 65.6984 43.8866C64.6837 43.8247 63.638 43.7732 62.5612 43.732C61.5052 43.6701 60.4802 43.567 59.4862 43.4227C58.4923 43.9381 57.6743 44.5567 57.0324 45.2783C56.4112 46 56.1006 46.835 56.1006 47.7835C56.1006 48.4021 56.2559 48.9794 56.5665 49.5155C56.8978 50.0515 57.3948 50.5155 58.0574 50.9072C58.7407 51.299 59.6001 51.6082 60.6355 51.835C61.6915 52.0619 62.9547 52.1753 64.4249 52.1753C67.3654 52.1753 69.5707 51.7216 71.0409 50.8144C72.5111 49.9072 73.2462 48.7423 73.2462 47.3196ZM79.9554 15.3711V17.8454C79.9554 18.6701 79.4584 19.1753 78.4645 19.3608L75.2963 19.8866C75.8347 21.0825 76.1038 22.4124 76.1038 23.8763C76.1038 25.4227 75.7932 26.8247 75.172 28.0825C74.5715 29.3402 73.7329 30.4124 72.6561 31.299C71.5793 32.1856 70.2954 32.866 68.8045 33.3402C67.3136 33.8144 65.6984 34.0515 63.959 34.0515C63.2964 34.0515 62.6441 34.0206 62.0021 33.9588C61.3809 33.8763 60.7701 33.7732 60.1695 33.6495C59.569 34 59.1238 34.3711 58.8339 34.7629C58.544 35.1546 58.3991 35.5567 58.3991 35.9691C58.3991 36.6495 58.6993 37.1546 59.2998 37.4845C59.9004 37.8144 60.6872 38.0515 61.6605 38.1959C62.6544 38.3402 63.783 38.433 65.0461 38.4742C66.3093 38.5155 67.5931 38.5876 68.8977 38.6907C70.2023 38.7938 71.4861 38.9691 72.7493 39.2165C74.0124 39.4433 75.1306 39.835 76.1038 40.3917C77.0978 40.9278 77.895 41.6598 78.4955 42.5876C79.0961 43.5155 79.3963 44.7216 79.3963 46.2062C79.3963 47.567 79.0546 48.8969 78.3713 50.1959C77.688 51.4948 76.694 52.6495 75.3895 53.6598C74.1056 54.6701 72.5318 55.4742 70.6682 56.0722C68.8045 56.6907 66.682 57 64.3007 57C61.94 57 59.8796 56.7732 58.1195 56.3196C56.3801 55.866 54.9202 55.2474 53.7399 54.4639C52.5803 53.701 51.7106 52.8144 51.1308 51.8041C50.5717 50.7938 50.2921 49.7423 50.2921 48.6495C50.2921 47.1649 50.7581 45.8969 51.6899 44.8454C52.6424 43.7938 53.9263 42.9691 55.5415 42.3711C54.6717 41.9588 53.9677 41.3917 53.4293 40.6701C52.9116 39.9484 52.6528 39 52.6528 37.8247C52.6528 36.8969 52.9945 35.9278 53.6778 34.9175C54.3611 33.9072 55.3862 33.0515 56.7528 32.3505C55.1791 31.4845 53.9366 30.3402 53.0255 28.9175C52.1144 27.4742 51.6588 25.7938 51.6588 23.8763C51.6588 22.3093 51.9591 20.8969 52.5596 19.6392C53.1808 18.3814 54.0402 17.3093 55.1377 16.4227C56.2352 15.5361 57.5294 14.8557 59.0203 14.3814C60.5319 13.9072 62.1782 13.6701 63.959 13.6701C66.6924 13.6701 69.0737 14.2371 71.103 15.3711H79.9554Z" fill="white"/>
<path d="M99.6248 13.732C101.965 13.732 104.077 14.1134 105.961 14.8763C107.866 15.6392 109.481 16.7216 110.807 18.1237C112.153 19.5258 113.188 21.2268 113.913 23.2268C114.638 25.2268 115 27.4742 115 29.9691C115 32.4639 114.638 34.7113 113.913 36.7113C113.188 38.7113 112.153 40.4227 110.807 41.8454C109.481 43.2474 107.866 44.3299 105.961 45.0928C104.077 45.8557 101.965 46.2371 99.6248 46.2371C97.2642 46.2371 95.1313 45.8557 93.2262 45.0928C91.3419 44.3299 89.7267 43.2474 88.3807 41.8454C87.0347 40.4227 85.9994 38.7113 85.2746 36.7113C84.5499 34.7113 84.1875 32.4639 84.1875 29.9691C84.1875 27.4742 84.5499 25.2268 85.2746 23.2268C85.9994 21.2268 87.0347 19.5258 88.3807 18.1237C89.7267 16.7216 91.3419 15.6392 93.2262 14.8763C95.1313 14.1134 97.2642 13.732 99.6248 13.732ZM99.6248 41.0412C102.482 41.0412 104.605 40.0928 105.992 38.1959C107.4 36.2783 108.104 33.5464 108.104 30C108.104 26.4536 107.4 23.7216 105.992 21.8041C104.605 19.866 102.482 18.8969 99.6248 18.8969C96.7258 18.8969 94.5722 19.866 93.1641 21.8041C91.756 23.7216 91.052 26.4536 91.052 30C91.052 33.5464 91.756 36.2783 93.1641 38.1959C94.5722 40.0928 96.7258 41.0412 99.6248 41.0412Z" fill="white"/>
</svg>
